solid OpenSCAD_Model
  facet normal 0 0 -1
    outer loop
      vertex 17.6538 -33.0279 0
      vertex 16.8053 -31.4405 0
      vertex 19.8061 -29.6419 0
    endloop
  endfacet
  facet normal 0 0 -1
    outer loop
      vertex 34.5993 -14.3315 0
      vertex 34.1149 -10.3486 0
      vertex 35.8374 -10.8712 0
    endloop
  endfacet
  facet normal 0 0 -1
    outer loop
      vertex 17.6538 -33.0279 0
      vertex 19.8061 -29.6419 0
      vertex 20.8061 -31.1385 0
    endloop
  endfacet
  facet normal 0 0 -1
    outer loop
      vertex 31.1385 -20.8061 0
      vertex 29.6419 -19.8061 0
      vertex 33.0279 -17.6538 0
    endloop
  endfacet
  facet normal 0 0 -1
    outer loop
      vertex 33.0279 -17.6538 0
      vertex 31.4405 -16.8053 0
      vertex 34.5993 -14.3315 0
    endloop
  endfacet
  facet normal 0 0 -1
    outer loop
      vertex 34.1149 -10.3486 0
      vertex 34.2899 -9.64999 0
      vertex 35.8374 -10.8712 0
    endloop
  endfacet
  facet normal 0 0 -1
    outer loop
      vertex 19.8061 -29.6419 0
      vertex 22.6161 -27.5578 0
      vertex 23.758 -28.9492 0
    endloop
  endfacet
  facet normal -0 0 -1
    outer loop
      vertex 36.1433 -9.64999 0
      vertex 35.8374 -10.8712 0
      vertex 34.2899 -9.64999 0
    endloop
  endfacet
  facet normal 0 0 -1
    outer loop
      vertex 14.3315 -34.5993 0
      vertex 13.6427 -32.9363 0
      vertex 16.8053 -31.4405 0
    endloop
  endfacet
  facet normal 0 0 -1
    outer loop
      vertex 3.49431 -35.4783 0
      vertex 6.95496 -34.965 0
      vertex 7.30612 -36.7304 0
    endloop
  endfacet
  facet normal -0 0 -1
    outer loop
      vertex 3.67073 -37.2697 0
      vertex 0 -37.45 0
      vertex 0 -35.65 0
    endloop
  endfacet
  facet normal 0 -0 -1
    outer loop
      vertex 32.9363 -13.6427 0
      vertex 34.5993 -14.3315 0
      vertex 31.4405 -16.8053 0
    endloop
  endfacet
  facet normal 0 -0 -1
    outer loop
      vertex 34.1149 -10.3486 0
      vertex 34.5993 -14.3315 0
      vertex 32.9363 -13.6427 0
    endloop
  endfacet
  facet normal -0 0 -1
    outer loop
      vertex 33.0279 -17.6538 0
      vertex 29.6419 -19.8061 0
      vertex 31.4405 -16.8053 0
    endloop
  endfacet
  facet normal -0 0 -1
    outer loop
      vertex 31.1385 -20.8061 0
      vertex 28.9492 -23.758 0
      vertex 29.6419 -19.8061 0
    endloop
  endfacet
  facet normal 0 -0 -1
    outer loop
      vertex 27.5578 -22.6161 0
      vertex 28.9492 -23.758 0
      vertex 26.4811 -26.4811 0
    endloop
  endfacet
  facet normal 0 0 -1
    outer loop
      vertex 29.6419 -19.8061 0
      vertex 28.9492 -23.758 0
      vertex 27.5578 -22.6161 0
    endloop
  endfacet
  facet normal 0 -0 -1
    outer loop
      vertex 25.2083 -25.2083 0
      vertex 26.4811 -26.4811 0
      vertex 22.6161 -27.5578 0
    endloop
  endfacet
  facet normal 0 0 -1
    outer loop
      vertex 27.5578 -22.6161 0
      vertex 26.4811 -26.4811 0
      vertex 25.2083 -25.2083 0
    endloop
  endfacet
  facet normal 0 0 -1
    outer loop
      vertex 22.6161 -27.5578 0
      vertex 26.4811 -26.4811 0
      vertex 23.758 -28.9492 0
    endloop
  endfacet
  facet normal 0 0 -1
    outer loop
      vertex 19.8061 -29.6419 0
      vertex 23.758 -28.9492 0
      vertex 20.8061 -31.1385 0
    endloop
  endfacet
  facet normal -0 0 -1
    outer loop
      vertex 17.6538 -33.0279 0
      vertex 14.3315 -34.5993 0
      vertex 16.8053 -31.4405 0
    endloop
  endfacet
  facet normal 0 0 -1
    outer loop
      vertex 14.3315 -34.5993 0
      vertex 10.3486 -34.1149 0
      vertex 13.6427 -32.9363 0
    endloop
  endfacet
  facet normal 0 -0 -1
    outer loop
      vertex 10.3486 -34.1149 0
      vertex 10.8712 -35.8374 0
      vertex 6.95496 -34.965 0
    endloop
  endfacet
  facet normal -0 0 -1
    outer loop
      vertex 14.3315 -34.5993 0
      vertex 10.8712 -35.8374 0
      vertex 10.3486 -34.1149 0
    endloop
  endfacet
  facet normal 0 0 -1
    outer loop
      vertex 6.95496 -34.965 0
      vertex 10.8712 -35.8374 0
      vertex 7.30612 -36.7304 0
    endloop
  endfacet
  facet normal 0 0 -1
    outer loop
      vertex 3.49431 -35.4783 0
      vertex 7.30612 -36.7304 0
      vertex 3.67073 -37.2697 0
    endloop
  endfacet
  facet normal 0 0 -1
    outer loop
      vertex 0 -35.65 0
      vertex 3.49431 -35.4783 0
      vertex 3.67073 -37.2697 0
    endloop
  endfacet
  facet normal -0 0 -1
    outer loop
      vertex 0 -35.65 0
      vertex -3.67073 -37.2697 0
      vertex -3.49431 -35.4783 0
    endloop
  endfacet
  facet normal 0 0 -1
    outer loop
      vertex -7.30612 -36.7304 0
      vertex -10.8712 -35.8374 0
      vertex -6.95496 -34.965 0
    endloop
  endfacet
  facet normal 0 0 -1
    outer loop
      vertex -10.8712 -35.8374 0
      vertex -14.3315 -34.5993 0
      vertex -10.3486 -34.1149 0
    endloop
  endfacet
  facet normal 0 0 -1
    outer loop
      vertex -14.3315 -34.5993 0
      vertex -16.8053 -31.4405 0
      vertex -13.6427 -32.9363 0
    endloop
  endfacet
  facet normal 0 0 -1
    outer loop
      vertex -14.3315 -34.5993 0
      vertex -17.6538 -33.0279 0
      vertex -16.8053 -31.4405 0
    endloop
  endfacet
  facet normal 0 0 -1
    outer loop
      vertex -17.6538 -33.0279 0
      vertex -20.8061 -31.1385 0
      vertex -19.8061 -29.6419 0
    endloop
  endfacet
  facet normal 0 0 -1
    outer loop
      vertex -19.8061 -29.6419 0
      vertex -23.758 -28.9492 0
      vertex -22.6161 -27.5578 0
    endloop
  endfacet
  facet normal 0 0 -1
    outer loop
      vertex -22.6161 -27.5578 0
      vertex -26.4811 -26.4811 0
      vertex -25.2083 -25.2083 0
    endloop
  endfacet
  facet normal 0 0 -1
    outer loop
      vertex -26.4811 -26.4811 0
      vertex -28.9492 -23.758 0
      vertex -27.5578 -22.6161 0
    endloop
  endfacet
  facet normal 0 0 -1
    outer loop
      vertex -28.9492 -23.758 0
      vertex -31.1385 -20.8061 0
      vertex -29.6419 -19.8061 0
    endloop
  endfacet
  facet normal 0 0 -1
    outer loop
      vertex -29.6419 -19.8061 0
      vertex -33.0279 -17.6538 0
      vertex -31.4405 -16.8053 0
    endloop
  endfacet
  facet normal 0 0 -1
    outer loop
      vertex -31.4405 -16.8053 0
      vertex -34.5993 -14.3315 0
      vertex -32.9363 -13.6427 0
    endloop
  endfacet
  facet normal 0 0 -1
    outer loop
      vertex -34.5993 -14.3315 0
      vertex -35.8374 -10.8712 0
      vertex -34.1149 -10.3486 0
    endloop
  endfacet
  facet normal 0 0 -1
    outer loop
      vertex -35.8374 -10.8712 0
      vertex -36.7304 -7.30612 0
      vertex -34.965 -6.95496 0
    endloop
  endfacet
  facet normal 0 0 -1
    outer loop
      vertex -36.7304 -7.30612 0
      vertex -37.2697 -3.67073 0
      vertex -35.4783 -3.49431 0
    endloop
  endfacet
  facet normal 0 0 -1
    outer loop
      vertex -37.2697 -3.67073 0
      vertex -37.45 0 0
      vertex -35.65 0 0
    endloop
  endfacet
  facet normal 0 0 -1
    outer loop
      vertex -35.65 0 0
      vertex -37.2697 3.67073 0
      vertex -35.4783 3.49431 0
    endloop
  endfacet
  facet normal 0 0 -1
    outer loop
      vertex -35.4783 3.49431 0
      vertex -36.7304 7.30612 0
      vertex -34.965 6.95496 0
    endloop
  endfacet
  facet normal 0 0 -1
    outer loop
      vertex -34.965 6.95496 0
      vertex -35.8374 10.8712 0
      vertex -34.1149 10.3486 0
    endloop
  endfacet
  facet normal 0 0 -1
    outer loop
      vertex -34.1149 10.3486 0
      vertex -34.5993 14.3315 0
      vertex -32.9363 13.6427 0
    endloop
  endfacet
  facet normal 0 0 -1
    outer loop
      vertex -34.5993 14.3315 0
      vertex -33.0279 17.6538 0
      vertex -31.4405 16.8053 0
    endloop
  endfacet
  facet normal 0 0 -1
    outer loop
      vertex -33.0279 17.6538 0
      vertex -31.1385 20.8061 0
      vertex -29.6419 19.8061 0
    endloop
  endfacet
  facet normal 0 0 -1
    outer loop
      vertex -29.6419 19.8061 0
      vertex -28.9492 23.758 0
      vertex -27.5578 22.6161 0
    endloop
  endfacet
  facet normal 0 0 -1
    outer loop
      vertex -27.5578 22.6161 0
      vertex -26.4811 26.4811 0
      vertex -25.2083 25.2083 0
    endloop
  endfacet
  facet normal 0 0 -1
    outer loop
      vertex -26.4811 26.4811 0
      vertex -23.758 28.9492 0
      vertex -22.6161 27.5578 0
    endloop
  endfacet
  facet normal 0 0 -1
    outer loop
      vertex -23.758 28.9492 0
      vertex -20.8061 31.1385 0
      vertex -19.8061 29.6419 0
    endloop
  endfacet
  facet normal 0 0 -1
    outer loop
      vertex -19.8061 29.6419 0
      vertex -17.6538 33.0279 0
      vertex -16.8053 31.4405 0
    endloop
  endfacet
  facet normal 0 0 -1
    outer loop
      vertex -16.8053 31.4405 0
      vertex -14.3315 34.5993 0
      vertex -13.6427 32.9363 0
    endloop
  endfacet
  facet normal 0 0 -1
    outer loop
      vertex -14.3315 34.5993 0
      vertex -10.8712 35.8374 0
      vertex -10.3486 34.1149 0
    endloop
  endfacet
  facet normal 0 0 -1
    outer loop
      vertex -10.8712 35.8374 0
      vertex -7.30612 36.7304 0
      vertex -6.95496 34.965 0
    endloop
  endfacet
  facet normal 0 0 -1
    outer loop
      vertex -7.30612 36.7304 0
      vertex -3.67073 37.2697 0
      vertex -3.49431 35.4783 0
    endloop
  endfacet
  facet normal 0 0 -1
    outer loop
      vertex -3.67073 37.2697 0
      vertex 0 37.45 0
      vertex 0 35.65 0
    endloop
  endfacet
  facet normal 0 0 -1
    outer loop
      vertex 0 35.65 0
      vertex 3.67073 37.2697 0
      vertex 3.49431 35.4783 0
    endloop
  endfacet
  facet normal 0 0 -1
    outer loop
      vertex 3.49431 35.4783 0
      vertex 7.30612 36.7304 0
      vertex 6.95496 34.965 0
    endloop
  endfacet
  facet normal 0 0 -1
    outer loop
      vertex 6.95496 34.965 0
      vertex 10.8712 35.8374 0
      vertex 10.3486 34.1149 0
    endloop
  endfacet
  facet normal 0 0 -1
    outer loop
      vertex 10.3486 34.1149 0
      vertex 14.3315 34.5993 0
      vertex 13.6427 32.9363 0
    endloop
  endfacet
  facet normal 0 0 -1
    outer loop
      vertex 14.3315 34.5993 0
      vertex 17.6538 33.0279 0
      vertex 16.8053 31.4405 0
    endloop
  endfacet
  facet normal 0 0 -1
    outer loop
      vertex 17.6538 33.0279 0
      vertex 20.8061 31.1385 0
      vertex 19.8061 29.6419 0
    endloop
  endfacet
  facet normal 0 0 -1
    outer loop
      vertex 19.8061 29.6419 0
      vertex 23.758 28.9492 0
      vertex 22.6161 27.5578 0
    endloop
  endfacet
  facet normal 0 0 -1
    outer loop
      vertex 22.6161 27.5578 0
      vertex 26.4811 26.4811 0
      vertex 25.2083 25.2083 0
    endloop
  endfacet
  facet normal 0 0 -1
    outer loop
      vertex 26.4811 26.4811 0
      vertex 28.9492 23.758 0
      vertex 27.5578 22.6161 0
    endloop
  endfacet
  facet normal 0 0 -1
    outer loop
      vertex 28.9492 23.758 0
      vertex 31.1385 20.8061 0
      vertex 29.6419 19.8061 0
    endloop
  endfacet
  facet normal 0 0 -1
    outer loop
      vertex 29.6419 19.8061 0
      vertex 33.0279 17.6538 0
      vertex 31.4405 16.8053 0
    endloop
  endfacet
  facet normal 0 0 -1
    outer loop
      vertex 34.5993 14.3315 0
      vertex 34.1149 10.3486 0
      vertex 32.9363 13.6427 0
    endloop
  endfacet
  facet normal 0 -0 -1
    outer loop
      vertex 34.5993 14.3315 0
      vertex 35.8374 10.8712 0
      vertex 34.1149 10.3486 0
    endloop
  endfacet
  facet normal 0 0 -1
    outer loop
      vertex 34.1149 10.3486 0
      vertex 35.8374 10.8712 0
      vertex 34.2899 9.64999 0
    endloop
  endfacet
  facet normal 0 0 -1
    outer loop
      vertex 34.2899 9.64999 0
      vertex 35.8374 10.8712 0
      vertex 36.1433 9.64999 0
    endloop
  endfacet
  facet normal 0 0 -1
    outer loop
      vertex 31.4405 16.8053 0
      vertex 34.5993 14.3315 0
      vertex 32.9363 13.6427 0
    endloop
  endfacet
  facet normal 0 0 -1
    outer loop
      vertex 31.4405 16.8053 0
      vertex 33.0279 17.6538 0
      vertex 34.5993 14.3315 0
    endloop
  endfacet
  facet normal 0 0 -1
    outer loop
      vertex 29.6419 19.8061 0
      vertex 31.1385 20.8061 0
      vertex 33.0279 17.6538 0
    endloop
  endfacet
  facet normal 0 0 -1
    outer loop
      vertex 27.5578 22.6161 0
      vertex 28.9492 23.758 0
      vertex 29.6419 19.8061 0
    endloop
  endfacet
  facet normal 0 0 -1
    outer loop
      vertex 25.2083 25.2083 0
      vertex 26.4811 26.4811 0
      vertex 27.5578 22.6161 0
    endloop
  endfacet
  facet normal 0 0 -1
    outer loop
      vertex 22.6161 27.5578 0
      vertex 23.758 28.9492 0
      vertex 26.4811 26.4811 0
    endloop
  endfacet
  facet normal 0 0 -1
    outer loop
      vertex 19.8061 29.6419 0
      vertex 20.8061 31.1385 0
      vertex 23.758 28.9492 0
    endloop
  endfacet
  facet normal 0 0 -1
    outer loop
      vertex 16.8053 31.4405 0
      vertex 17.6538 33.0279 0
      vertex 19.8061 29.6419 0
    endloop
  endfacet
  facet normal 0 0 -1
    outer loop
      vertex 13.6427 32.9363 0
      vertex 14.3315 34.5993 0
      vertex 16.8053 31.4405 0
    endloop
  endfacet
  facet normal 0 0 -1
    outer loop
      vertex 10.3486 34.1149 0
      vertex 10.8712 35.8374 0
      vertex 14.3315 34.5993 0
    endloop
  endfacet
  facet normal 0 0 -1
    outer loop
      vertex 6.95496 34.965 0
      vertex 7.30612 36.7304 0
      vertex 10.8712 35.8374 0
    endloop
  endfacet
  facet normal 0 0 -1
    outer loop
      vertex 3.49431 35.4783 0
      vertex 3.67073 37.2697 0
      vertex 7.30612 36.7304 0
    endloop
  endfacet
  facet normal 0 0 -1
    outer loop
      vertex 0 35.65 0
      vertex 0 37.45 0
      vertex 3.67073 37.2697 0
    endloop
  endfacet
  facet normal 0 0 -1
    outer loop
      vertex -3.49431 35.4783 0
      vertex -3.67073 37.2697 0
      vertex 0 35.65 0
    endloop
  endfacet
  facet normal 0 0 -1
    outer loop
      vertex -6.95496 34.965 0
      vertex -7.30612 36.7304 0
      vertex -3.49431 35.4783 0
    endloop
  endfacet
  facet normal 0 0 -1
    outer loop
      vertex -10.3486 34.1149 0
      vertex -10.8712 35.8374 0
      vertex -6.95496 34.965 0
    endloop
  endfacet
  facet normal 0 0 -1
    outer loop
      vertex -13.6427 32.9363 0
      vertex -14.3315 34.5993 0
      vertex -10.3486 34.1149 0
    endloop
  endfacet
  facet normal 0 0 -1
    outer loop
      vertex -16.8053 31.4405 0
      vertex -17.6538 33.0279 0
      vertex -14.3315 34.5993 0
    endloop
  endfacet
  facet normal 0 0 -1
    outer loop
      vertex -19.8061 29.6419 0
      vertex -20.8061 31.1385 0
      vertex -17.6538 33.0279 0
    endloop
  endfacet
  facet normal 0 0 -1
    outer loop
      vertex -22.6161 27.5578 0
      vertex -23.758 28.9492 0
      vertex -19.8061 29.6419 0
    endloop
  endfacet
  facet normal 0 0 -1
    outer loop
      vertex -25.2083 25.2083 0
      vertex -26.4811 26.4811 0
      vertex -22.6161 27.5578 0
    endloop
  endfacet
  facet normal 0 0 -1
    outer loop
      vertex -27.5578 22.6161 0
      vertex -28.9492 23.758 0
      vertex -26.4811 26.4811 0
    endloop
  endfacet
  facet normal 0 0 -1
    outer loop
      vertex -29.6419 19.8061 0
      vertex -31.1385 20.8061 0
      vertex -28.9492 23.758 0
    endloop
  endfacet
  facet normal 0 0 -1
    outer loop
      vertex -31.4405 16.8053 0
      vertex -33.0279 17.6538 0
      vertex -29.6419 19.8061 0
    endloop
  endfacet
  facet normal 0 0 -1
    outer loop
      vertex -32.9363 13.6427 0
      vertex -34.5993 14.3315 0
      vertex -31.4405 16.8053 0
    endloop
  endfacet
  facet normal 0 0 -1
    outer loop
      vertex -34.1149 10.3486 0
      vertex -35.8374 10.8712 0
      vertex -34.5993 14.3315 0
    endloop
  endfacet
  facet normal 0 0 -1
    outer loop
      vertex -34.965 6.95496 0
      vertex -36.7304 7.30612 0
      vertex -35.8374 10.8712 0
    endloop
  endfacet
  facet normal 0 0 -1
    outer loop
      vertex -35.4783 3.49431 0
      vertex -37.2697 3.67073 0
      vertex -36.7304 7.30612 0
    endloop
  endfacet
  facet normal 0 0 -1
    outer loop
      vertex -35.65 0 0
      vertex -37.45 0 0
      vertex -37.2697 3.67073 0
    endloop
  endfacet
  facet normal -0 0 -1
    outer loop
      vertex -35.4783 -3.49431 0
      vertex -37.2697 -3.67073 0
      vertex -35.65 0 0
    endloop
  endfacet
  facet normal -0 0 -1
    outer loop
      vertex -34.965 -6.95496 0
      vertex -36.7304 -7.30612 0
      vertex -35.4783 -3.49431 0
    endloop
  endfacet
  facet normal -0 0 -1
    outer loop
      vertex -34.1149 -10.3486 0
      vertex -35.8374 -10.8712 0
      vertex -34.965 -6.95496 0
    endloop
  endfacet
  facet normal -0 0 -1
    outer loop
      vertex -32.9363 -13.6427 0
      vertex -34.5993 -14.3315 0
      vertex -34.1149 -10.3486 0
    endloop
  endfacet
  facet normal -0 0 -1
    outer loop
      vertex -31.4405 -16.8053 0
      vertex -33.0279 -17.6538 0
      vertex -34.5993 -14.3315 0
    endloop
  endfacet
  facet normal -0 0 -1
    outer loop
      vertex -29.6419 -19.8061 0
      vertex -31.1385 -20.8061 0
      vertex -33.0279 -17.6538 0
    endloop
  endfacet
  facet normal -0 0 -1
    outer loop
      vertex -27.5578 -22.6161 0
      vertex -28.9492 -23.758 0
      vertex -29.6419 -19.8061 0
    endloop
  endfacet
  facet normal -0 0 -1
    outer loop
      vertex -25.2083 -25.2083 0
      vertex -26.4811 -26.4811 0
      vertex -27.5578 -22.6161 0
    endloop
  endfacet
  facet normal -0 0 -1
    outer loop
      vertex -22.6161 -27.5578 0
      vertex -23.758 -28.9492 0
      vertex -26.4811 -26.4811 0
    endloop
  endfacet
  facet normal -0 0 -1
    outer loop
      vertex -19.8061 -29.6419 0
      vertex -20.8061 -31.1385 0
      vertex -23.758 -28.9492 0
    endloop
  endfacet
  facet normal -0 0 -1
    outer loop
      vertex -16.8053 -31.4405 0
      vertex -17.6538 -33.0279 0
      vertex -19.8061 -29.6419 0
    endloop
  endfacet
  facet normal -0 0 -1
    outer loop
      vertex -10.3486 -34.1149 0
      vertex -14.3315 -34.5993 0
      vertex -13.6427 -32.9363 0
    endloop
  endfacet
  facet normal -0 0 -1
    outer loop
      vertex -6.95496 -34.965 0
      vertex -10.8712 -35.8374 0
      vertex -10.3486 -34.1149 0
    endloop
  endfacet
  facet normal -0 0 -1
    outer loop
      vertex -3.49431 -35.4783 0
      vertex -7.30612 -36.7304 0
      vertex -6.95496 -34.965 0
    endloop
  endfacet
  facet normal 0 0 -1
    outer loop
      vertex -3.49431 -35.4783 0
      vertex -3.67073 -37.2697 0
      vertex -7.30612 -36.7304 0
    endloop
  endfacet
  facet normal 0 -0 -1
    outer loop
      vertex 0 -35.65 0
      vertex 0 -37.45 0
      vertex -3.67073 -37.2697 0
    endloop
  endfacet
  facet normal 0 0 1
    outer loop
      vertex 19.8061 -29.6419 4
      vertex 16.8053 -31.4405 4
      vertex 17.6538 -33.0279 4
    endloop
  endfacet
  facet normal 0 0 1
    outer loop
      vertex 35.8374 -10.8712 4
      vertex 34.1149 -10.3486 4
      vertex 34.5993 -14.3315 4
    endloop
  endfacet
  facet normal 0 0 1
    outer loop
      vertex 20.8061 -31.1385 4
      vertex 19.8061 -29.6419 4
      vertex 17.6538 -33.0279 4
    endloop
  endfacet
  facet normal 0 0 1
    outer loop
      vertex 33.0279 -17.6538 4
      vertex 29.6419 -19.8061 4
      vertex 31.1385 -20.8061 4
    endloop
  endfacet
  facet normal 0 0 1
    outer loop
      vertex 34.5993 -14.3315 4
      vertex 31.4405 -16.8053 4
      vertex 33.0279 -17.6538 4
    endloop
  endfacet
  facet normal 0 0 1
    outer loop
      vertex 35.8374 -10.8712 4
      vertex 34.2899 -9.64999 4
      vertex 34.1149 -10.3486 4
    endloop
  endfacet
  facet normal 0 0 1
    outer loop
      vertex 23.758 -28.9492 4
      vertex 22.6161 -27.5578 4
      vertex 19.8061 -29.6419 4
    endloop
  endfacet
  facet normal -0 0 1
    outer loop
      vertex 34.2899 -9.64999 4
      vertex 35.8374 -10.8712 4
      vertex 36.1433 -9.64999 4
    endloop
  endfacet
  facet normal 0 0 1
    outer loop
      vertex 16.8053 -31.4405 4
      vertex 13.6427 -32.9363 4
      vertex 14.3315 -34.5993 4
    endloop
  endfacet
  facet normal 0 0 1
    outer loop
      vertex 7.30612 -36.7304 4
      vertex 6.95496 -34.965 4
      vertex 3.49431 -35.4783 4
    endloop
  endfacet
  facet normal 0 0 1
    outer loop
      vertex 0 -35.65 4
      vertex 0 -37.45 4
      vertex 3.67073 -37.2697 4
    endloop
  endfacet
  facet normal 0 0 1
    outer loop
      vertex 31.4405 -16.8053 4
      vertex 34.5993 -14.3315 4
      vertex 32.9363 -13.6427 4
    endloop
  endfacet
  facet normal -0 0 1
    outer loop
      vertex 32.9363 -13.6427 4
      vertex 34.5993 -14.3315 4
      vertex 34.1149 -10.3486 4
    endloop
  endfacet
  facet normal 0 0 1
    outer loop
      vertex 31.4405 -16.8053 4
      vertex 29.6419 -19.8061 4
      vertex 33.0279 -17.6538 4
    endloop
  endfacet
  facet normal 0 0 1
    outer loop
      vertex 29.6419 -19.8061 4
      vertex 28.9492 -23.758 4
      vertex 31.1385 -20.8061 4
    endloop
  endfacet
  facet normal 0 0 1
    outer loop
      vertex 26.4811 -26.4811 4
      vertex 28.9492 -23.758 4
      vertex 27.5578 -22.6161 4
    endloop
  endfacet
  facet normal -0 0 1
    outer loop
      vertex 27.5578 -22.6161 4
      vertex 28.9492 -23.758 4
      vertex 29.6419 -19.8061 4
    endloop
  endfacet
  facet normal 0 0 1
    outer loop
      vertex 22.6161 -27.5578 4
      vertex 26.4811 -26.4811 4
      vertex 25.2083 -25.2083 4
    endloop
  endfacet
  facet normal -0 0 1
    outer loop
      vertex 25.2083 -25.2083 4
      vertex 26.4811 -26.4811 4
      vertex 27.5578 -22.6161 4
    endloop
  endfacet
  facet normal 0 -0 1
    outer loop
      vertex 23.758 -28.9492 4
      vertex 26.4811 -26.4811 4
      vertex 22.6161 -27.5578 4
    endloop
  endfacet
  facet normal 0 -0 1
    outer loop
      vertex 20.8061 -31.1385 4
      vertex 23.758 -28.9492 4
      vertex 19.8061 -29.6419 4
    endloop
  endfacet
  facet normal 0 0 1
    outer loop
      vertex 16.8053 -31.4405 4
      vertex 14.3315 -34.5993 4
      vertex 17.6538 -33.0279 4
    endloop
  endfacet
  facet normal 0 0 1
    outer loop
      vertex 13.6427 -32.9363 4
      vertex 10.3486 -34.1149 4
      vertex 14.3315 -34.5993 4
    endloop
  endfacet
  facet normal -0 0 1
    outer loop
      vertex 6.95496 -34.965 4
      vertex 10.8712 -35.8374 4
      vertex 10.3486 -34.1149 4
    endloop
  endfacet
  facet normal 0 0 1
    outer loop
      vertex 10.3486 -34.1149 4
      vertex 10.8712 -35.8374 4
      vertex 14.3315 -34.5993 4
    endloop
  endfacet
  facet normal 0 -0 1
    outer loop
      vertex 7.30612 -36.7304 4
      vertex 10.8712 -35.8374 4
      vertex 6.95496 -34.965 4
    endloop
  endfacet
  facet normal 0 -0 1
    outer loop
      vertex 3.67073 -37.2697 4
      vertex 7.30612 -36.7304 4
      vertex 3.49431 -35.4783 4
    endloop
  endfacet
  facet normal 0 0 1
    outer loop
      vertex 3.67073 -37.2697 4
      vertex 3.49431 -35.4783 4
      vertex 0 -35.65 4
    endloop
  endfacet
  facet normal 0 0 1
    outer loop
      vertex -3.49431 -35.4783 4
      vertex -3.67073 -37.2697 4
      vertex 0 -35.65 4
    endloop
  endfacet
  facet normal 0 0 1
    outer loop
      vertex -6.95496 -34.965 4
      vertex -10.8712 -35.8374 4
      vertex -7.30612 -36.7304 4
    endloop
  endfacet
  facet normal 0 0 1
    outer loop
      vertex -10.3486 -34.1149 4
      vertex -14.3315 -34.5993 4
      vertex -10.8712 -35.8374 4
    endloop
  endfacet
  facet normal 0 0 1
    outer loop
      vertex -13.6427 -32.9363 4
      vertex -16.8053 -31.4405 4
      vertex -14.3315 -34.5993 4
    endloop
  endfacet
  facet normal 0 0 1
    outer loop
      vertex -16.8053 -31.4405 4
      vertex -17.6538 -33.0279 4
      vertex -14.3315 -34.5993 4
    endloop
  endfacet
  facet normal 0 0 1
    outer loop
      vertex -19.8061 -29.6419 4
      vertex -20.8061 -31.1385 4
      vertex -17.6538 -33.0279 4
    endloop
  endfacet
  facet normal 0 0 1
    outer loop
      vertex -22.6161 -27.5578 4
      vertex -23.758 -28.9492 4
      vertex -19.8061 -29.6419 4
    endloop
  endfacet
  facet normal 0 0 1
    outer loop
      vertex -25.2083 -25.2083 4
      vertex -26.4811 -26.4811 4
      vertex -22.6161 -27.5578 4
    endloop
  endfacet
  facet normal 0 0 1
    outer loop
      vertex -27.5578 -22.6161 4
      vertex -28.9492 -23.758 4
      vertex -26.4811 -26.4811 4
    endloop
  endfacet
  facet normal 0 0 1
    outer loop
      vertex -29.6419 -19.8061 4
      vertex -31.1385 -20.8061 4
      vertex -28.9492 -23.758 4
    endloop
  endfacet
  facet normal 0 0 1
    outer loop
      vertex -31.4405 -16.8053 4
      vertex -33.0279 -17.6538 4
      vertex -29.6419 -19.8061 4
    endloop
  endfacet
  facet normal 0 0 1
    outer loop
      vertex -32.9363 -13.6427 4
      vertex -34.5993 -14.3315 4
      vertex -31.4405 -16.8053 4
    endloop
  endfacet
  facet normal 0 0 1
    outer loop
      vertex -34.1149 -10.3486 4
      vertex -35.8374 -10.8712 4
      vertex -34.5993 -14.3315 4
    endloop
  endfacet
  facet normal 0 0 1
    outer loop
      vertex -34.965 -6.95496 4
      vertex -36.7304 -7.30612 4
      vertex -35.8374 -10.8712 4
    endloop
  endfacet
  facet normal 0 0 1
    outer loop
      vertex -35.4783 -3.49431 4
      vertex -37.2697 -3.67073 4
      vertex -36.7304 -7.30612 4
    endloop
  endfacet
  facet normal 0 0 1
    outer loop
      vertex -35.65 0 4
      vertex -37.45 0 4
      vertex -37.2697 -3.67073 4
    endloop
  endfacet
  facet normal 0 0 1
    outer loop
      vertex -35.4783 3.49431 4
      vertex -37.2697 3.67073 4
      vertex -35.65 0 4
    endloop
  endfacet
  facet normal 0 0 1
    outer loop
      vertex -34.965 6.95496 4
      vertex -36.7304 7.30612 4
      vertex -35.4783 3.49431 4
    endloop
  endfacet
  facet normal 0 0 1
    outer loop
      vertex -34.1149 10.3486 4
      vertex -35.8374 10.8712 4
      vertex -34.965 6.95496 4
    endloop
  endfacet
  facet normal 0 0 1
    outer loop
      vertex -32.9363 13.6427 4
      vertex -34.5993 14.3315 4
      vertex -34.1149 10.3486 4
    endloop
  endfacet
  facet normal 0 0 1
    outer loop
      vertex -31.4405 16.8053 4
      vertex -33.0279 17.6538 4
      vertex -34.5993 14.3315 4
    endloop
  endfacet
  facet normal 0 0 1
    outer loop
      vertex -29.6419 19.8061 4
      vertex -31.1385 20.8061 4
      vertex -33.0279 17.6538 4
    endloop
  endfacet
  facet normal 0 0 1
    outer loop
      vertex -27.5578 22.6161 4
      vertex -28.9492 23.758 4
      vertex -29.6419 19.8061 4
    endloop
  endfacet
  facet normal 0 0 1
    outer loop
      vertex -25.2083 25.2083 4
      vertex -26.4811 26.4811 4
      vertex -27.5578 22.6161 4
    endloop
  endfacet
  facet normal 0 0 1
    outer loop
      vertex -22.6161 27.5578 4
      vertex -23.758 28.9492 4
      vertex -26.4811 26.4811 4
    endloop
  endfacet
  facet normal 0 0 1
    outer loop
      vertex -19.8061 29.6419 4
      vertex -20.8061 31.1385 4
      vertex -23.758 28.9492 4
    endloop
  endfacet
  facet normal 0 0 1
    outer loop
      vertex -16.8053 31.4405 4
      vertex -17.6538 33.0279 4
      vertex -19.8061 29.6419 4
    endloop
  endfacet
  facet normal 0 0 1
    outer loop
      vertex -13.6427 32.9363 4
      vertex -14.3315 34.5993 4
      vertex -16.8053 31.4405 4
    endloop
  endfacet
  facet normal 0 0 1
    outer loop
      vertex -10.3486 34.1149 4
      vertex -10.8712 35.8374 4
      vertex -14.3315 34.5993 4
    endloop
  endfacet
  facet normal 0 0 1
    outer loop
      vertex -6.95496 34.965 4
      vertex -7.30612 36.7304 4
      vertex -10.8712 35.8374 4
    endloop
  endfacet
  facet normal 0 0 1
    outer loop
      vertex -3.49431 35.4783 4
      vertex -3.67073 37.2697 4
      vertex -7.30612 36.7304 4
    endloop
  endfacet
  facet normal 0 -0 1
    outer loop
      vertex 0 35.65 4
      vertex 0 37.45 4
      vertex -3.67073 37.2697 4
    endloop
  endfacet
  facet normal 0 -0 1
    outer loop
      vertex 3.49431 35.4783 4
      vertex 3.67073 37.2697 4
      vertex 0 35.65 4
    endloop
  endfacet
  facet normal 0 -0 1
    outer loop
      vertex 6.95496 34.965 4
      vertex 7.30612 36.7304 4
      vertex 3.49431 35.4783 4
    endloop
  endfacet
  facet normal 0 -0 1
    outer loop
      vertex 10.3486 34.1149 4
      vertex 10.8712 35.8374 4
      vertex 6.95496 34.965 4
    endloop
  endfacet
  facet normal 0 -0 1
    outer loop
      vertex 13.6427 32.9363 4
      vertex 14.3315 34.5993 4
      vertex 10.3486 34.1149 4
    endloop
  endfacet
  facet normal 0 -0 1
    outer loop
      vertex 16.8053 31.4405 4
      vertex 17.6538 33.0279 4
      vertex 14.3315 34.5993 4
    endloop
  endfacet
  facet normal 0 -0 1
    outer loop
      vertex 19.8061 29.6419 4
      vertex 20.8061 31.1385 4
      vertex 17.6538 33.0279 4
    endloop
  endfacet
  facet normal 0 -0 1
    outer loop
      vertex 22.6161 27.5578 4
      vertex 23.758 28.9492 4
      vertex 19.8061 29.6419 4
    endloop
  endfacet
  facet normal 0 -0 1
    outer loop
      vertex 25.2083 25.2083 4
      vertex 26.4811 26.4811 4
      vertex 22.6161 27.5578 4
    endloop
  endfacet
  facet normal 0 -0 1
    outer loop
      vertex 27.5578 22.6161 4
      vertex 28.9492 23.758 4
      vertex 26.4811 26.4811 4
    endloop
  endfacet
  facet normal 0 -0 1
    outer loop
      vertex 29.6419 19.8061 4
      vertex 31.1385 20.8061 4
      vertex 28.9492 23.758 4
    endloop
  endfacet
  facet normal 0 -0 1
    outer loop
      vertex 31.4405 16.8053 4
      vertex 33.0279 17.6538 4
      vertex 29.6419 19.8061 4
    endloop
  endfacet
  facet normal -0 0 1
    outer loop
      vertex 32.9363 13.6427 4
      vertex 34.1149 10.3486 4
      vertex 34.5993 14.3315 4
    endloop
  endfacet
  facet normal 0 0 1
    outer loop
      vertex 34.1149 10.3486 4
      vertex 35.8374 10.8712 4
      vertex 34.5993 14.3315 4
    endloop
  endfacet
  facet normal 0 -0 1
    outer loop
      vertex 34.2899 9.64999 4
      vertex 35.8374 10.8712 4
      vertex 34.1149 10.3486 4
    endloop
  endfacet
  facet normal 0 0 1
    outer loop
      vertex 36.1433 9.64999 4
      vertex 35.8374 10.8712 4
      vertex 34.2899 9.64999 4
    endloop
  endfacet
  facet normal 0 -0 1
    outer loop
      vertex 32.9363 13.6427 4
      vertex 34.5993 14.3315 4
      vertex 31.4405 16.8053 4
    endloop
  endfacet
  facet normal 0 0 1
    outer loop
      vertex 34.5993 14.3315 4
      vertex 33.0279 17.6538 4
      vertex 31.4405 16.8053 4
    endloop
  endfacet
  facet normal 0 0 1
    outer loop
      vertex 33.0279 17.6538 4
      vertex 31.1385 20.8061 4
      vertex 29.6419 19.8061 4
    endloop
  endfacet
  facet normal 0 0 1
    outer loop
      vertex 29.6419 19.8061 4
      vertex 28.9492 23.758 4
      vertex 27.5578 22.6161 4
    endloop
  endfacet
  facet normal 0 0 1
    outer loop
      vertex 27.5578 22.6161 4
      vertex 26.4811 26.4811 4
      vertex 25.2083 25.2083 4
    endloop
  endfacet
  facet normal 0 0 1
    outer loop
      vertex 26.4811 26.4811 4
      vertex 23.758 28.9492 4
      vertex 22.6161 27.5578 4
    endloop
  endfacet
  facet normal 0 0 1
    outer loop
      vertex 23.758 28.9492 4
      vertex 20.8061 31.1385 4
      vertex 19.8061 29.6419 4
    endloop
  endfacet
  facet normal 0 0 1
    outer loop
      vertex 19.8061 29.6419 4
      vertex 17.6538 33.0279 4
      vertex 16.8053 31.4405 4
    endloop
  endfacet
  facet normal 0 0 1
    outer loop
      vertex 16.8053 31.4405 4
      vertex 14.3315 34.5993 4
      vertex 13.6427 32.9363 4
    endloop
  endfacet
  facet normal 0 0 1
    outer loop
      vertex 14.3315 34.5993 4
      vertex 10.8712 35.8374 4
      vertex 10.3486 34.1149 4
    endloop
  endfacet
  facet normal 0 0 1
    outer loop
      vertex 10.8712 35.8374 4
      vertex 7.30612 36.7304 4
      vertex 6.95496 34.965 4
    endloop
  endfacet
  facet normal 0 0 1
    outer loop
      vertex 7.30612 36.7304 4
      vertex 3.67073 37.2697 4
      vertex 3.49431 35.4783 4
    endloop
  endfacet
  facet normal 0 0 1
    outer loop
      vertex 3.67073 37.2697 4
      vertex 0 37.45 4
      vertex 0 35.65 4
    endloop
  endfacet
  facet normal 0 0 1
    outer loop
      vertex 0 35.65 4
      vertex -3.67073 37.2697 4
      vertex -3.49431 35.4783 4
    endloop
  endfacet
  facet normal 0 0 1
    outer loop
      vertex -3.49431 35.4783 4
      vertex -7.30612 36.7304 4
      vertex -6.95496 34.965 4
    endloop
  endfacet
  facet normal 0 0 1
    outer loop
      vertex -6.95496 34.965 4
      vertex -10.8712 35.8374 4
      vertex -10.3486 34.1149 4
    endloop
  endfacet
  facet normal 0 0 1
    outer loop
      vertex -10.3486 34.1149 4
      vertex -14.3315 34.5993 4
      vertex -13.6427 32.9363 4
    endloop
  endfacet
  facet normal 0 0 1
    outer loop
      vertex -14.3315 34.5993 4
      vertex -17.6538 33.0279 4
      vertex -16.8053 31.4405 4
    endloop
  endfacet
  facet normal 0 0 1
    outer loop
      vertex -17.6538 33.0279 4
      vertex -20.8061 31.1385 4
      vertex -19.8061 29.6419 4
    endloop
  endfacet
  facet normal 0 0 1
    outer loop
      vertex -19.8061 29.6419 4
      vertex -23.758 28.9492 4
      vertex -22.6161 27.5578 4
    endloop
  endfacet
  facet normal 0 0 1
    outer loop
      vertex -22.6161 27.5578 4
      vertex -26.4811 26.4811 4
      vertex -25.2083 25.2083 4
    endloop
  endfacet
  facet normal 0 0 1
    outer loop
      vertex -26.4811 26.4811 4
      vertex -28.9492 23.758 4
      vertex -27.5578 22.6161 4
    endloop
  endfacet
  facet normal 0 0 1
    outer loop
      vertex -28.9492 23.758 4
      vertex -31.1385 20.8061 4
      vertex -29.6419 19.8061 4
    endloop
  endfacet
  facet normal 0 0 1
    outer loop
      vertex -29.6419 19.8061 4
      vertex -33.0279 17.6538 4
      vertex -31.4405 16.8053 4
    endloop
  endfacet
  facet normal 0 0 1
    outer loop
      vertex -31.4405 16.8053 4
      vertex -34.5993 14.3315 4
      vertex -32.9363 13.6427 4
    endloop
  endfacet
  facet normal 0 0 1
    outer loop
      vertex -34.5993 14.3315 4
      vertex -35.8374 10.8712 4
      vertex -34.1149 10.3486 4
    endloop
  endfacet
  facet normal 0 0 1
    outer loop
      vertex -35.8374 10.8712 4
      vertex -36.7304 7.30612 4
      vertex -34.965 6.95496 4
    endloop
  endfacet
  facet normal 0 0 1
    outer loop
      vertex -36.7304 7.30612 4
      vertex -37.2697 3.67073 4
      vertex -35.4783 3.49431 4
    endloop
  endfacet
  facet normal 0 0 1
    outer loop
      vertex -37.2697 3.67073 4
      vertex -37.45 0 4
      vertex -35.65 0 4
    endloop
  endfacet
  facet normal 0 0 1
    outer loop
      vertex -35.65 0 4
      vertex -37.2697 -3.67073 4
      vertex -35.4783 -3.49431 4
    endloop
  endfacet
  facet normal 0 0 1
    outer loop
      vertex -35.4783 -3.49431 4
      vertex -36.7304 -7.30612 4
      vertex -34.965 -6.95496 4
    endloop
  endfacet
  facet normal 0 0 1
    outer loop
      vertex -34.965 -6.95496 4
      vertex -35.8374 -10.8712 4
      vertex -34.1149 -10.3486 4
    endloop
  endfacet
  facet normal 0 0 1
    outer loop
      vertex -34.1149 -10.3486 4
      vertex -34.5993 -14.3315 4
      vertex -32.9363 -13.6427 4
    endloop
  endfacet
  facet normal 0 0 1
    outer loop
      vertex -34.5993 -14.3315 4
      vertex -33.0279 -17.6538 4
      vertex -31.4405 -16.8053 4
    endloop
  endfacet
  facet normal 0 0 1
    outer loop
      vertex -33.0279 -17.6538 4
      vertex -31.1385 -20.8061 4
      vertex -29.6419 -19.8061 4
    endloop
  endfacet
  facet normal 0 0 1
    outer loop
      vertex -29.6419 -19.8061 4
      vertex -28.9492 -23.758 4
      vertex -27.5578 -22.6161 4
    endloop
  endfacet
  facet normal 0 0 1
    outer loop
      vertex -27.5578 -22.6161 4
      vertex -26.4811 -26.4811 4
      vertex -25.2083 -25.2083 4
    endloop
  endfacet
  facet normal 0 0 1
    outer loop
      vertex -26.4811 -26.4811 4
      vertex -23.758 -28.9492 4
      vertex -22.6161 -27.5578 4
    endloop
  endfacet
  facet normal 0 0 1
    outer loop
      vertex -23.758 -28.9492 4
      vertex -20.8061 -31.1385 4
      vertex -19.8061 -29.6419 4
    endloop
  endfacet
  facet normal 0 0 1
    outer loop
      vertex -19.8061 -29.6419 4
      vertex -17.6538 -33.0279 4
      vertex -16.8053 -31.4405 4
    endloop
  endfacet
  facet normal 0 0 1
    outer loop
      vertex -13.6427 -32.9363 4
      vertex -14.3315 -34.5993 4
      vertex -10.3486 -34.1149 4
    endloop
  endfacet
  facet normal 0 0 1
    outer loop
      vertex -10.3486 -34.1149 4
      vertex -10.8712 -35.8374 4
      vertex -6.95496 -34.965 4
    endloop
  endfacet
  facet normal 0 0 1
    outer loop
      vertex -6.95496 -34.965 4
      vertex -7.30612 -36.7304 4
      vertex -3.49431 -35.4783 4
    endloop
  endfacet
  facet normal -0 0 1
    outer loop
      vertex -7.30612 -36.7304 4
      vertex -3.67073 -37.2697 4
      vertex -3.49431 -35.4783 4
    endloop
  endfacet
  facet normal -0 0 1
    outer loop
      vertex -3.67073 -37.2697 4
      vertex 0 -37.45 4
      vertex 0 -35.65 4
    endloop
  endfacet
  facet normal 0.146727 -0.989177 0
    outer loop
      vertex 7.30612 -36.7304 0
      vertex 3.67073 -37.2697 4
      vertex 3.67073 -37.2697 0
    endloop
  endfacet
  facet normal 0.146727 -0.989177 0
    outer loop
      vertex 7.30612 -36.7304 0
      vertex 7.30612 -36.7304 4
      vertex 3.67073 -37.2697 4
    endloop
  endfacet
  facet normal 0.242983 -0.970031 0
    outer loop
      vertex 10.8712 -35.8374 0
      vertex 7.30612 -36.7304 4
      vertex 7.30612 -36.7304 0
    endloop
  endfacet
  facet normal 0.242983 -0.970031 0
    outer loop
      vertex 10.8712 -35.8374 0
      vertex 10.8712 -35.8374 4
      vertex 7.30612 -36.7304 4
    endloop
  endfacet
  facet normal 0.336891 -0.941544 0
    outer loop
      vertex 14.3315 -34.5993 0
      vertex 10.8712 -35.8374 4
      vertex 10.8712 -35.8374 0
    endloop
  endfacet
  facet normal 0.336891 -0.941544 0
    outer loop
      vertex 14.3315 -34.5993 0
      vertex 14.3315 -34.5993 4
      vertex 10.8712 -35.8374 4
    endloop
  endfacet
  facet normal 0.427555 -0.903989 0
    outer loop
      vertex 17.6538 -33.0279 0
      vertex 14.3315 -34.5993 4
      vertex 14.3315 -34.5993 0
    endloop
  endfacet
  facet normal 0.427555 -0.903989 0
    outer loop
      vertex 17.6538 -33.0279 0
      vertex 17.6538 -33.0279 4
      vertex 14.3315 -34.5993 4
    endloop
  endfacet
  facet normal 0.514101 -0.85773 0
    outer loop
      vertex 20.8061 -31.1385 0
      vertex 17.6538 -33.0279 4
      vertex 17.6538 -33.0279 0
    endloop
  endfacet
  facet normal 0.514101 -0.85773 0
    outer loop
      vertex 20.8061 -31.1385 0
      vertex 20.8061 -31.1385 4
      vertex 17.6538 -33.0279 4
    endloop
  endfacet
  facet normal 0.595699 -0.803208 0
    outer loop
      vertex 23.758 -28.9492 0
      vertex 20.8061 -31.1385 4
      vertex 20.8061 -31.1385 0
    endloop
  endfacet
  facet normal 0.595699 -0.803208 0
    outer loop
      vertex 23.758 -28.9492 0
      vertex 23.758 -28.9492 4
      vertex 20.8061 -31.1385 4
    endloop
  endfacet
  facet normal 0.67156 -0.74095 0
    outer loop
      vertex 26.4811 -26.4811 0
      vertex 23.758 -28.9492 4
      vertex 23.758 -28.9492 0
    endloop
  endfacet
  facet normal 0.67156 -0.74095 0
    outer loop
      vertex 26.4811 -26.4811 0
      vertex 26.4811 -26.4811 4
      vertex 23.758 -28.9492 4
    endloop
  endfacet
  facet normal 0.74095 -0.67156 0
    outer loop
      vertex 28.9492 -23.758 0
      vertex 26.4811 -26.4811 4
      vertex 26.4811 -26.4811 0
    endloop
  endfacet
  facet normal 0.74095 -0.67156 0
    outer loop
      vertex 28.9492 -23.758 0
      vertex 28.9492 -23.758 4
      vertex 26.4811 -26.4811 4
    endloop
  endfacet
  facet normal 0.803208 -0.595699 0
    outer loop
      vertex 31.1385 -20.8061 0
      vertex 28.9492 -23.758 4
      vertex 28.9492 -23.758 0
    endloop
  endfacet
  facet normal 0.803208 -0.595699 0
    outer loop
      vertex 31.1385 -20.8061 0
      vertex 31.1385 -20.8061 4
      vertex 28.9492 -23.758 4
    endloop
  endfacet
  facet normal 0.85773 -0.514101 0
    outer loop
      vertex 33.0279 -17.6538 0
      vertex 31.1385 -20.8061 4
      vertex 31.1385 -20.8061 0
    endloop
  endfacet
  facet normal 0.85773 -0.514101 0
    outer loop
      vertex 33.0279 -17.6538 0
      vertex 33.0279 -17.6538 4
      vertex 31.1385 -20.8061 4
    endloop
  endfacet
  facet normal 0.903989 -0.427555 0
    outer loop
      vertex 34.5993 -14.3315 0
      vertex 33.0279 -17.6538 4
      vertex 33.0279 -17.6538 0
    endloop
  endfacet
  facet normal 0.903989 -0.427555 0
    outer loop
      vertex 34.5993 -14.3315 0
      vertex 34.5993 -14.3315 4
      vertex 33.0279 -17.6538 4
    endloop
  endfacet
  facet normal 0.941544 -0.336891 0
    outer loop
      vertex 35.8374 -10.8712 0
      vertex 34.5993 -14.3315 4
      vertex 34.5993 -14.3315 0
    endloop
  endfacet
  facet normal 0.941544 -0.336891 0
    outer loop
      vertex 35.8374 -10.8712 0
      vertex 35.8374 -10.8712 4
      vertex 34.5993 -14.3315 4
    endloop
  endfacet
  facet normal 0.97003 -0.242986 0
    outer loop
      vertex 36.1433 -9.64999 0
      vertex 35.8374 -10.8712 4
      vertex 35.8374 -10.8712 0
    endloop
  endfacet
  facet normal 0.97003 -0.242986 0
    outer loop
      vertex 36.1433 -9.64999 0
      vertex 36.1433 -9.64999 4
      vertex 35.8374 -10.8712 4
    endloop
  endfacet
  facet normal 0 1 0
    outer loop
      vertex 34.2899 -9.64999 0
      vertex 36.1433 -9.64999 4
      vertex 36.1433 -9.64999 0
    endloop
  endfacet
  facet normal 0 1 0
    outer loop
      vertex 34.2899 -9.64999 0
      vertex 34.2899 -9.64999 4
      vertex 36.1433 -9.64999 4
    endloop
  endfacet
  facet normal -0.970031 0.242979 0
    outer loop
      vertex 34.1149 -10.3486 0
      vertex 34.2899 -9.64999 4
      vertex 34.2899 -9.64999 0
    endloop
  endfacet
  facet normal -0.970031 0.242979 0
    outer loop
      vertex 34.1149 -10.3486 0
      vertex 34.1149 -10.3486 4
      vertex 34.2899 -9.64999 4
    endloop
  endfacet
  facet normal -0.941544 0.336891 0
    outer loop
      vertex 32.9363 -13.6427 0
      vertex 34.1149 -10.3486 4
      vertex 34.1149 -10.3486 0
    endloop
  endfacet
  facet normal -0.941544 0.336891 0
    outer loop
      vertex 32.9363 -13.6427 0
      vertex 32.9363 -13.6427 4
      vertex 34.1149 -10.3486 4
    endloop
  endfacet
  facet normal -0.90399 0.427553 0
    outer loop
      vertex 31.4405 -16.8053 0
      vertex 32.9363 -13.6427 4
      vertex 32.9363 -13.6427 0
    endloop
  endfacet
  facet normal -0.90399 0.427553 0
    outer loop
      vertex 31.4405 -16.8053 0
      vertex 31.4405 -16.8053 4
      vertex 32.9363 -13.6427 4
    endloop
  endfacet
  facet normal -0.85773 0.514101 0
    outer loop
      vertex 29.6419 -19.8061 0
      vertex 31.4405 -16.8053 4
      vertex 31.4405 -16.8053 0
    endloop
  endfacet
  facet normal -0.85773 0.514101 0
    outer loop
      vertex 29.6419 -19.8061 0
      vertex 29.6419 -19.8061 4
      vertex 31.4405 -16.8053 4
    endloop
  endfacet
  facet normal -0.803207 0.5957 0
    outer loop
      vertex 27.5578 -22.6161 0
      vertex 29.6419 -19.8061 4
      vertex 29.6419 -19.8061 0
    endloop
  endfacet
  facet normal -0.803207 0.5957 0
    outer loop
      vertex 27.5578 -22.6161 0
      vertex 27.5578 -22.6161 4
      vertex 29.6419 -19.8061 4
    endloop
  endfacet
  facet normal -0.740949 0.671562 0
    outer loop
      vertex 25.2083 -25.2083 0
      vertex 27.5578 -22.6161 4
      vertex 27.5578 -22.6161 0
    endloop
  endfacet
  facet normal -0.740949 0.671562 0
    outer loop
      vertex 25.2083 -25.2083 0
      vertex 25.2083 -25.2083 4
      vertex 27.5578 -22.6161 4
    endloop
  endfacet
  facet normal -0.671562 0.740949 0
    outer loop
      vertex 22.6161 -27.5578 0
      vertex 25.2083 -25.2083 4
      vertex 25.2083 -25.2083 0
    endloop
  endfacet
  facet normal -0.671562 0.740949 0
    outer loop
      vertex 22.6161 -27.5578 0
      vertex 22.6161 -27.5578 4
      vertex 25.2083 -25.2083 4
    endloop
  endfacet
  facet normal -0.5957 0.803207 0
    outer loop
      vertex 19.8061 -29.6419 0
      vertex 22.6161 -27.5578 4
      vertex 22.6161 -27.5578 0
    endloop
  endfacet
  facet normal -0.5957 0.803207 0
    outer loop
      vertex 19.8061 -29.6419 0
      vertex 19.8061 -29.6419 4
      vertex 22.6161 -27.5578 4
    endloop
  endfacet
  facet normal -0.514101 0.85773 0
    outer loop
      vertex 16.8053 -31.4405 0
      vertex 19.8061 -29.6419 4
      vertex 19.8061 -29.6419 0
    endloop
  endfacet
  facet normal -0.514101 0.85773 0
    outer loop
      vertex 16.8053 -31.4405 0
      vertex 16.8053 -31.4405 4
      vertex 19.8061 -29.6419 4
    endloop
  endfacet
  facet normal -0.427553 0.90399 0
    outer loop
      vertex 13.6427 -32.9363 0
      vertex 16.8053 -31.4405 4
      vertex 16.8053 -31.4405 0
    endloop
  endfacet
  facet normal -0.427553 0.90399 0
    outer loop
      vertex 13.6427 -32.9363 0
      vertex 13.6427 -32.9363 4
      vertex 16.8053 -31.4405 4
    endloop
  endfacet
  facet normal -0.336891 0.941544 0
    outer loop
      vertex 10.3486 -34.1149 0
      vertex 13.6427 -32.9363 4
      vertex 13.6427 -32.9363 0
    endloop
  endfacet
  facet normal -0.336891 0.941544 0
    outer loop
      vertex 10.3486 -34.1149 0
      vertex 10.3486 -34.1149 4
      vertex 13.6427 -32.9363 4
    endloop
  endfacet
  facet normal -0.242978 0.970032 0
    outer loop
      vertex 6.95496 -34.965 0
      vertex 10.3486 -34.1149 4
      vertex 10.3486 -34.1149 0
    endloop
  endfacet
  facet normal -0.242978 0.970032 0
    outer loop
      vertex 6.95496 -34.965 0
      vertex 6.95496 -34.965 4
      vertex 10.3486 -34.1149 4
    endloop
  endfacet
  facet normal -0.146734 0.989176 0
    outer loop
      vertex 3.49431 -35.4783 0
      vertex 6.95496 -34.965 4
      vertex 6.95496 -34.965 0
    endloop
  endfacet
  facet normal -0.146734 0.989176 0
    outer loop
      vertex 3.49431 -35.4783 0
      vertex 3.49431 -35.4783 4
      vertex 6.95496 -34.965 4
    endloop
  endfacet
  facet normal -0.0490668 0.998795 0
    outer loop
      vertex 0 -35.65 0
      vertex 3.49431 -35.4783 4
      vertex 3.49431 -35.4783 0
    endloop
  endfacet
  facet normal -0.0490668 0.998795 0
    outer loop
      vertex 0 -35.65 0
      vertex 0 -35.65 4
      vertex 3.49431 -35.4783 4
    endloop
  endfacet
  facet normal 0.0490668 0.998795 0
    outer loop
      vertex -3.49431 -35.4783 0
      vertex 0 -35.65 4
      vertex 0 -35.65 0
    endloop
  endfacet
  facet normal 0.0490668 0.998795 -0
    outer loop
      vertex -3.49431 -35.4783 0
      vertex -3.49431 -35.4783 4
      vertex 0 -35.65 4
    endloop
  endfacet
  facet normal 0.146734 0.989176 0
    outer loop
      vertex -6.95496 -34.965 0
      vertex -3.49431 -35.4783 4
      vertex -3.49431 -35.4783 0
    endloop
  endfacet
  facet normal 0.146734 0.989176 -0
    outer loop
      vertex -6.95496 -34.965 0
      vertex -6.95496 -34.965 4
      vertex -3.49431 -35.4783 4
    endloop
  endfacet
  facet normal 0.242978 0.970032 0
    outer loop
      vertex -10.3486 -34.1149 0
      vertex -6.95496 -34.965 4
      vertex -6.95496 -34.965 0
    endloop
  endfacet
  facet normal 0.242978 0.970032 -0
    outer loop
      vertex -10.3486 -34.1149 0
      vertex -10.3486 -34.1149 4
      vertex -6.95496 -34.965 4
    endloop
  endfacet
  facet normal 0.336891 0.941544 0
    outer loop
      vertex -13.6427 -32.9363 0
      vertex -10.3486 -34.1149 4
      vertex -10.3486 -34.1149 0
    endloop
  endfacet
  facet normal 0.336891 0.941544 -0
    outer loop
      vertex -13.6427 -32.9363 0
      vertex -13.6427 -32.9363 4
      vertex -10.3486 -34.1149 4
    endloop
  endfacet
  facet normal 0.427553 0.90399 0
    outer loop
      vertex -16.8053 -31.4405 0
      vertex -13.6427 -32.9363 4
      vertex -13.6427 -32.9363 0
    endloop
  endfacet
  facet normal 0.427553 0.90399 -0
    outer loop
      vertex -16.8053 -31.4405 0
      vertex -16.8053 -31.4405 4
      vertex -13.6427 -32.9363 4
    endloop
  endfacet
  facet normal 0.514101 0.85773 0
    outer loop
      vertex -19.8061 -29.6419 0
      vertex -16.8053 -31.4405 4
      vertex -16.8053 -31.4405 0
    endloop
  endfacet
  facet normal 0.514101 0.85773 -0
    outer loop
      vertex -19.8061 -29.6419 0
      vertex -19.8061 -29.6419 4
      vertex -16.8053 -31.4405 4
    endloop
  endfacet
  facet normal 0.5957 0.803207 0
    outer loop
      vertex -22.6161 -27.5578 0
      vertex -19.8061 -29.6419 4
      vertex -19.8061 -29.6419 0
    endloop
  endfacet
  facet normal 0.5957 0.803207 -0
    outer loop
      vertex -22.6161 -27.5578 0
      vertex -22.6161 -27.5578 4
      vertex -19.8061 -29.6419 4
    endloop
  endfacet
  facet normal 0.671562 0.740949 0
    outer loop
      vertex -25.2083 -25.2083 0
      vertex -22.6161 -27.5578 4
      vertex -22.6161 -27.5578 0
    endloop
  endfacet
  facet normal 0.671562 0.740949 -0
    outer loop
      vertex -25.2083 -25.2083 0
      vertex -25.2083 -25.2083 4
      vertex -22.6161 -27.5578 4
    endloop
  endfacet
  facet normal 0.740949 0.671562 0
    outer loop
      vertex -27.5578 -22.6161 0
      vertex -25.2083 -25.2083 4
      vertex -25.2083 -25.2083 0
    endloop
  endfacet
  facet normal 0.740949 0.671562 -0
    outer loop
      vertex -27.5578 -22.6161 0
      vertex -27.5578 -22.6161 4
      vertex -25.2083 -25.2083 4
    endloop
  endfacet
  facet normal 0.803207 0.5957 0
    outer loop
      vertex -29.6419 -19.8061 0
      vertex -27.5578 -22.6161 4
      vertex -27.5578 -22.6161 0
    endloop
  endfacet
  facet normal 0.803207 0.5957 -0
    outer loop
      vertex -29.6419 -19.8061 0
      vertex -29.6419 -19.8061 4
      vertex -27.5578 -22.6161 4
    endloop
  endfacet
  facet normal 0.85773 0.514101 0
    outer loop
      vertex -31.4405 -16.8053 0
      vertex -29.6419 -19.8061 4
      vertex -29.6419 -19.8061 0
    endloop
  endfacet
  facet normal 0.85773 0.514101 -0
    outer loop
      vertex -31.4405 -16.8053 0
      vertex -31.4405 -16.8053 4
      vertex -29.6419 -19.8061 4
    endloop
  endfacet
  facet normal 0.90399 0.427553 0
    outer loop
      vertex -32.9363 -13.6427 0
      vertex -31.4405 -16.8053 4
      vertex -31.4405 -16.8053 0
    endloop
  endfacet
  facet normal 0.90399 0.427553 -0
    outer loop
      vertex -32.9363 -13.6427 0
      vertex -32.9363 -13.6427 4
      vertex -31.4405 -16.8053 4
    endloop
  endfacet
  facet normal 0.941544 0.336891 0
    outer loop
      vertex -34.1149 -10.3486 0
      vertex -32.9363 -13.6427 4
      vertex -32.9363 -13.6427 0
    endloop
  endfacet
  facet normal 0.941544 0.336891 -0
    outer loop
      vertex -34.1149 -10.3486 0
      vertex -34.1149 -10.3486 4
      vertex -32.9363 -13.6427 4
    endloop
  endfacet
  facet normal 0.970032 0.242978 0
    outer loop
      vertex -34.965 -6.95496 0
      vertex -34.1149 -10.3486 4
      vertex -34.1149 -10.3486 0
    endloop
  endfacet
  facet normal 0.970032 0.242978 -0
    outer loop
      vertex -34.965 -6.95496 0
      vertex -34.965 -6.95496 4
      vertex -34.1149 -10.3486 4
    endloop
  endfacet
  facet normal 0.989176 0.146734 0
    outer loop
      vertex -35.4783 -3.49431 0
      vertex -34.965 -6.95496 4
      vertex -34.965 -6.95496 0
    endloop
  endfacet
  facet normal 0.989176 0.146734 -0
    outer loop
      vertex -35.4783 -3.49431 0
      vertex -35.4783 -3.49431 4
      vertex -34.965 -6.95496 4
    endloop
  endfacet
  facet normal 0.998795 0.0490668 0
    outer loop
      vertex -35.65 0 0
      vertex -35.4783 -3.49431 4
      vertex -35.4783 -3.49431 0
    endloop
  endfacet
  facet normal 0.998795 0.0490668 -0
    outer loop
      vertex -35.65 0 0
      vertex -35.65 0 4
      vertex -35.4783 -3.49431 4
    endloop
  endfacet
  facet normal 0.998795 -0.0490668 0
    outer loop
      vertex -35.4783 3.49431 0
      vertex -35.65 0 4
      vertex -35.65 0 0
    endloop
  endfacet
  facet normal 0.998795 -0.0490668 0
    outer loop
      vertex -35.4783 3.49431 0
      vertex -35.4783 3.49431 4
      vertex -35.65 0 4
    endloop
  endfacet
  facet normal 0.989176 -0.146734 0
    outer loop
      vertex -34.965 6.95496 0
      vertex -35.4783 3.49431 4
      vertex -35.4783 3.49431 0
    endloop
  endfacet
  facet normal 0.989176 -0.146734 0
    outer loop
      vertex -34.965 6.95496 0
      vertex -34.965 6.95496 4
      vertex -35.4783 3.49431 4
    endloop
  endfacet
  facet normal 0.970032 -0.242978 0
    outer loop
      vertex -34.1149 10.3486 0
      vertex -34.965 6.95496 4
      vertex -34.965 6.95496 0
    endloop
  endfacet
  facet normal 0.970032 -0.242978 0
    outer loop
      vertex -34.1149 10.3486 0
      vertex -34.1149 10.3486 4
      vertex -34.965 6.95496 4
    endloop
  endfacet
  facet normal 0.941544 -0.336891 0
    outer loop
      vertex -32.9363 13.6427 0
      vertex -34.1149 10.3486 4
      vertex -34.1149 10.3486 0
    endloop
  endfacet
  facet normal 0.941544 -0.336891 0
    outer loop
      vertex -32.9363 13.6427 0
      vertex -32.9363 13.6427 4
      vertex -34.1149 10.3486 4
    endloop
  endfacet
  facet normal 0.90399 -0.427553 0
    outer loop
      vertex -31.4405 16.8053 0
      vertex -32.9363 13.6427 4
      vertex -32.9363 13.6427 0
    endloop
  endfacet
  facet normal 0.90399 -0.427553 0
    outer loop
      vertex -31.4405 16.8053 0
      vertex -31.4405 16.8053 4
      vertex -32.9363 13.6427 4
    endloop
  endfacet
  facet normal 0.85773 -0.514101 0
    outer loop
      vertex -29.6419 19.8061 0
      vertex -31.4405 16.8053 4
      vertex -31.4405 16.8053 0
    endloop
  endfacet
  facet normal 0.85773 -0.514101 0
    outer loop
      vertex -29.6419 19.8061 0
      vertex -29.6419 19.8061 4
      vertex -31.4405 16.8053 4
    endloop
  endfacet
  facet normal 0.803207 -0.5957 0
    outer loop
      vertex -27.5578 22.6161 0
      vertex -29.6419 19.8061 4
      vertex -29.6419 19.8061 0
    endloop
  endfacet
  facet normal 0.803207 -0.5957 0
    outer loop
      vertex -27.5578 22.6161 0
      vertex -27.5578 22.6161 4
      vertex -29.6419 19.8061 4
    endloop
  endfacet
  facet normal 0.740949 -0.671562 0
    outer loop
      vertex -25.2083 25.2083 0
      vertex -27.5578 22.6161 4
      vertex -27.5578 22.6161 0
    endloop
  endfacet
  facet normal 0.740949 -0.671562 0
    outer loop
      vertex -25.2083 25.2083 0
      vertex -25.2083 25.2083 4
      vertex -27.5578 22.6161 4
    endloop
  endfacet
  facet normal 0.671562 -0.740949 0
    outer loop
      vertex -22.6161 27.5578 0
      vertex -25.2083 25.2083 4
      vertex -25.2083 25.2083 0
    endloop
  endfacet
  facet normal 0.671562 -0.740949 0
    outer loop
      vertex -22.6161 27.5578 0
      vertex -22.6161 27.5578 4
      vertex -25.2083 25.2083 4
    endloop
  endfacet
  facet normal 0.5957 -0.803207 0
    outer loop
      vertex -19.8061 29.6419 0
      vertex -22.6161 27.5578 4
      vertex -22.6161 27.5578 0
    endloop
  endfacet
  facet normal 0.5957 -0.803207 0
    outer loop
      vertex -19.8061 29.6419 0
      vertex -19.8061 29.6419 4
      vertex -22.6161 27.5578 4
    endloop
  endfacet
  facet normal 0.514101 -0.85773 0
    outer loop
      vertex -16.8053 31.4405 0
      vertex -19.8061 29.6419 4
      vertex -19.8061 29.6419 0
    endloop
  endfacet
  facet normal 0.514101 -0.85773 0
    outer loop
      vertex -16.8053 31.4405 0
      vertex -16.8053 31.4405 4
      vertex -19.8061 29.6419 4
    endloop
  endfacet
  facet normal 0.427553 -0.90399 0
    outer loop
      vertex -13.6427 32.9363 0
      vertex -16.8053 31.4405 4
      vertex -16.8053 31.4405 0
    endloop
  endfacet
  facet normal 0.427553 -0.90399 0
    outer loop
      vertex -13.6427 32.9363 0
      vertex -13.6427 32.9363 4
      vertex -16.8053 31.4405 4
    endloop
  endfacet
  facet normal 0.336891 -0.941544 0
    outer loop
      vertex -10.3486 34.1149 0
      vertex -13.6427 32.9363 4
      vertex -13.6427 32.9363 0
    endloop
  endfacet
  facet normal 0.336891 -0.941544 0
    outer loop
      vertex -10.3486 34.1149 0
      vertex -10.3486 34.1149 4
      vertex -13.6427 32.9363 4
    endloop
  endfacet
  facet normal 0.242978 -0.970032 0
    outer loop
      vertex -6.95496 34.965 0
      vertex -10.3486 34.1149 4
      vertex -10.3486 34.1149 0
    endloop
  endfacet
  facet normal 0.242978 -0.970032 0
    outer loop
      vertex -6.95496 34.965 0
      vertex -6.95496 34.965 4
      vertex -10.3486 34.1149 4
    endloop
  endfacet
  facet normal 0.146734 -0.989176 0
    outer loop
      vertex -3.49431 35.4783 0
      vertex -6.95496 34.965 4
      vertex -6.95496 34.965 0
    endloop
  endfacet
  facet normal 0.146734 -0.989176 0
    outer loop
      vertex -3.49431 35.4783 0
      vertex -3.49431 35.4783 4
      vertex -6.95496 34.965 4
    endloop
  endfacet
  facet normal 0.0490668 -0.998795 0
    outer loop
      vertex 0 35.65 0
      vertex -3.49431 35.4783 4
      vertex -3.49431 35.4783 0
    endloop
  endfacet
  facet normal 0.0490668 -0.998795 0
    outer loop
      vertex 0 35.65 0
      vertex 0 35.65 4
      vertex -3.49431 35.4783 4
    endloop
  endfacet
  facet normal -0.0490668 -0.998795 0
    outer loop
      vertex 3.49431 35.4783 0
      vertex 0 35.65 4
      vertex 0 35.65 0
    endloop
  endfacet
  facet normal -0.0490668 -0.998795 0
    outer loop
      vertex 3.49431 35.4783 0
      vertex 3.49431 35.4783 4
      vertex 0 35.65 4
    endloop
  endfacet
  facet normal -0.146734 -0.989176 0
    outer loop
      vertex 6.95496 34.965 0
      vertex 3.49431 35.4783 4
      vertex 3.49431 35.4783 0
    endloop
  endfacet
  facet normal -0.146734 -0.989176 0
    outer loop
      vertex 6.95496 34.965 0
      vertex 6.95496 34.965 4
      vertex 3.49431 35.4783 4
    endloop
  endfacet
  facet normal -0.242978 -0.970032 0
    outer loop
      vertex 10.3486 34.1149 0
      vertex 6.95496 34.965 4
      vertex 6.95496 34.965 0
    endloop
  endfacet
  facet normal -0.242978 -0.970032 0
    outer loop
      vertex 10.3486 34.1149 0
      vertex 10.3486 34.1149 4
      vertex 6.95496 34.965 4
    endloop
  endfacet
  facet normal -0.336891 -0.941544 0
    outer loop
      vertex 13.6427 32.9363 0
      vertex 10.3486 34.1149 4
      vertex 10.3486 34.1149 0
    endloop
  endfacet
  facet normal -0.336891 -0.941544 0
    outer loop
      vertex 13.6427 32.9363 0
      vertex 13.6427 32.9363 4
      vertex 10.3486 34.1149 4
    endloop
  endfacet
  facet normal -0.427553 -0.90399 0
    outer loop
      vertex 16.8053 31.4405 0
      vertex 13.6427 32.9363 4
      vertex 13.6427 32.9363 0
    endloop
  endfacet
  facet normal -0.427553 -0.90399 0
    outer loop
      vertex 16.8053 31.4405 0
      vertex 16.8053 31.4405 4
      vertex 13.6427 32.9363 4
    endloop
  endfacet
  facet normal -0.514101 -0.85773 0
    outer loop
      vertex 19.8061 29.6419 0
      vertex 16.8053 31.4405 4
      vertex 16.8053 31.4405 0
    endloop
  endfacet
  facet normal -0.514101 -0.85773 0
    outer loop
      vertex 19.8061 29.6419 0
      vertex 19.8061 29.6419 4
      vertex 16.8053 31.4405 4
    endloop
  endfacet
  facet normal -0.5957 -0.803207 0
    outer loop
      vertex 22.6161 27.5578 0
      vertex 19.8061 29.6419 4
      vertex 19.8061 29.6419 0
    endloop
  endfacet
  facet normal -0.5957 -0.803207 0
    outer loop
      vertex 22.6161 27.5578 0
      vertex 22.6161 27.5578 4
      vertex 19.8061 29.6419 4
    endloop
  endfacet
  facet normal -0.671562 -0.740949 0
    outer loop
      vertex 25.2083 25.2083 0
      vertex 22.6161 27.5578 4
      vertex 22.6161 27.5578 0
    endloop
  endfacet
  facet normal -0.671562 -0.740949 0
    outer loop
      vertex 25.2083 25.2083 0
      vertex 25.2083 25.2083 4
      vertex 22.6161 27.5578 4
    endloop
  endfacet
  facet normal -0.740949 -0.671562 0
    outer loop
      vertex 27.5578 22.6161 0
      vertex 25.2083 25.2083 4
      vertex 25.2083 25.2083 0
    endloop
  endfacet
  facet normal -0.740949 -0.671562 0
    outer loop
      vertex 27.5578 22.6161 0
      vertex 27.5578 22.6161 4
      vertex 25.2083 25.2083 4
    endloop
  endfacet
  facet normal -0.803207 -0.5957 0
    outer loop
      vertex 29.6419 19.8061 0
      vertex 27.5578 22.6161 4
      vertex 27.5578 22.6161 0
    endloop
  endfacet
  facet normal -0.803207 -0.5957 0
    outer loop
      vertex 29.6419 19.8061 0
      vertex 29.6419 19.8061 4
      vertex 27.5578 22.6161 4
    endloop
  endfacet
  facet normal -0.85773 -0.514101 0
    outer loop
      vertex 31.4405 16.8053 0
      vertex 29.6419 19.8061 4
      vertex 29.6419 19.8061 0
    endloop
  endfacet
  facet normal -0.85773 -0.514101 0
    outer loop
      vertex 31.4405 16.8053 0
      vertex 31.4405 16.8053 4
      vertex 29.6419 19.8061 4
    endloop
  endfacet
  facet normal -0.90399 -0.427553 0
    outer loop
      vertex 32.9363 13.6427 0
      vertex 31.4405 16.8053 4
      vertex 31.4405 16.8053 0
    endloop
  endfacet
  facet normal -0.90399 -0.427553 0
    outer loop
      vertex 32.9363 13.6427 0
      vertex 32.9363 13.6427 4
      vertex 31.4405 16.8053 4
    endloop
  endfacet
  facet normal -0.941544 -0.336891 0
    outer loop
      vertex 34.1149 10.3486 0
      vertex 32.9363 13.6427 4
      vertex 32.9363 13.6427 0
    endloop
  endfacet
  facet normal -0.941544 -0.336891 0
    outer loop
      vertex 34.1149 10.3486 0
      vertex 34.1149 10.3486 4
      vertex 32.9363 13.6427 4
    endloop
  endfacet
  facet normal -0.970031 -0.242979 0
    outer loop
      vertex 34.2899 9.64999 0
      vertex 34.1149 10.3486 4
      vertex 34.1149 10.3486 0
    endloop
  endfacet
  facet normal -0.970031 -0.242979 0
    outer loop
      vertex 34.2899 9.64999 0
      vertex 34.2899 9.64999 4
      vertex 34.1149 10.3486 4
    endloop
  endfacet
  facet normal 0 -1 0
    outer loop
      vertex 36.1433 9.64999 0
      vertex 34.2899 9.64999 4
      vertex 34.2899 9.64999 0
    endloop
  endfacet
  facet normal 0 -1 0
    outer loop
      vertex 36.1433 9.64999 0
      vertex 36.1433 9.64999 4
      vertex 34.2899 9.64999 4
    endloop
  endfacet
  facet normal 0.97003 0.242986 0
    outer loop
      vertex 35.8374 10.8712 0
      vertex 36.1433 9.64999 4
      vertex 36.1433 9.64999 0
    endloop
  endfacet
  facet normal 0.97003 0.242986 -0
    outer loop
      vertex 35.8374 10.8712 0
      vertex 35.8374 10.8712 4
      vertex 36.1433 9.64999 4
    endloop
  endfacet
  facet normal 0.941544 0.336891 0
    outer loop
      vertex 34.5993 14.3315 0
      vertex 35.8374 10.8712 4
      vertex 35.8374 10.8712 0
    endloop
  endfacet
  facet normal 0.941544 0.336891 -0
    outer loop
      vertex 34.5993 14.3315 0
      vertex 34.5993 14.3315 4
      vertex 35.8374 10.8712 4
    endloop
  endfacet
  facet normal 0.903989 0.427555 0
    outer loop
      vertex 33.0279 17.6538 0
      vertex 34.5993 14.3315 4
      vertex 34.5993 14.3315 0
    endloop
  endfacet
  facet normal 0.903989 0.427555 -0
    outer loop
      vertex 33.0279 17.6538 0
      vertex 33.0279 17.6538 4
      vertex 34.5993 14.3315 4
    endloop
  endfacet
  facet normal 0.85773 0.514101 0
    outer loop
      vertex 31.1385 20.8061 0
      vertex 33.0279 17.6538 4
      vertex 33.0279 17.6538 0
    endloop
  endfacet
  facet normal 0.85773 0.514101 -0
    outer loop
      vertex 31.1385 20.8061 0
      vertex 31.1385 20.8061 4
      vertex 33.0279 17.6538 4
    endloop
  endfacet
  facet normal 0.803208 0.595699 0
    outer loop
      vertex 28.9492 23.758 0
      vertex 31.1385 20.8061 4
      vertex 31.1385 20.8061 0
    endloop
  endfacet
  facet normal 0.803208 0.595699 -0
    outer loop
      vertex 28.9492 23.758 0
      vertex 28.9492 23.758 4
      vertex 31.1385 20.8061 4
    endloop
  endfacet
  facet normal 0.74095 0.67156 0
    outer loop
      vertex 26.4811 26.4811 0
      vertex 28.9492 23.758 4
      vertex 28.9492 23.758 0
    endloop
  endfacet
  facet normal 0.74095 0.67156 -0
    outer loop
      vertex 26.4811 26.4811 0
      vertex 26.4811 26.4811 4
      vertex 28.9492 23.758 4
    endloop
  endfacet
  facet normal 0.67156 0.74095 0
    outer loop
      vertex 23.758 28.9492 0
      vertex 26.4811 26.4811 4
      vertex 26.4811 26.4811 0
    endloop
  endfacet
  facet normal 0.67156 0.74095 -0
    outer loop
      vertex 23.758 28.9492 0
      vertex 23.758 28.9492 4
      vertex 26.4811 26.4811 4
    endloop
  endfacet
  facet normal 0.595699 0.803208 0
    outer loop
      vertex 20.8061 31.1385 0
      vertex 23.758 28.9492 4
      vertex 23.758 28.9492 0
    endloop
  endfacet
  facet normal 0.595699 0.803208 -0
    outer loop
      vertex 20.8061 31.1385 0
      vertex 20.8061 31.1385 4
      vertex 23.758 28.9492 4
    endloop
  endfacet
  facet normal 0.514101 0.85773 0
    outer loop
      vertex 17.6538 33.0279 0
      vertex 20.8061 31.1385 4
      vertex 20.8061 31.1385 0
    endloop
  endfacet
  facet normal 0.514101 0.85773 -0
    outer loop
      vertex 17.6538 33.0279 0
      vertex 17.6538 33.0279 4
      vertex 20.8061 31.1385 4
    endloop
  endfacet
  facet normal 0.427555 0.903989 0
    outer loop
      vertex 14.3315 34.5993 0
      vertex 17.6538 33.0279 4
      vertex 17.6538 33.0279 0
    endloop
  endfacet
  facet normal 0.427555 0.903989 -0
    outer loop
      vertex 14.3315 34.5993 0
      vertex 14.3315 34.5993 4
      vertex 17.6538 33.0279 4
    endloop
  endfacet
  facet normal 0.336891 0.941544 0
    outer loop
      vertex 10.8712 35.8374 0
      vertex 14.3315 34.5993 4
      vertex 14.3315 34.5993 0
    endloop
  endfacet
  facet normal 0.336891 0.941544 -0
    outer loop
      vertex 10.8712 35.8374 0
      vertex 10.8712 35.8374 4
      vertex 14.3315 34.5993 4
    endloop
  endfacet
  facet normal 0.242983 0.970031 0
    outer loop
      vertex 7.30612 36.7304 0
      vertex 10.8712 35.8374 4
      vertex 10.8712 35.8374 0
    endloop
  endfacet
  facet normal 0.242983 0.970031 -0
    outer loop
      vertex 7.30612 36.7304 0
      vertex 7.30612 36.7304 4
      vertex 10.8712 35.8374 4
    endloop
  endfacet
  facet normal 0.146727 0.989177 0
    outer loop
      vertex 3.67073 37.2697 0
      vertex 7.30612 36.7304 4
      vertex 7.30612 36.7304 0
    endloop
  endfacet
  facet normal 0.146727 0.989177 -0
    outer loop
      vertex 3.67073 37.2697 0
      vertex 3.67073 37.2697 4
      vertex 7.30612 36.7304 4
    endloop
  endfacet
  facet normal 0.049071 0.998795 0
    outer loop
      vertex 0 37.45 0
      vertex 3.67073 37.2697 4
      vertex 3.67073 37.2697 0
    endloop
  endfacet
  facet normal 0.049071 0.998795 -0
    outer loop
      vertex 0 37.45 0
      vertex 0 37.45 4
      vertex 3.67073 37.2697 4
    endloop
  endfacet
  facet normal -0.049071 0.998795 0
    outer loop
      vertex -3.67073 37.2697 0
      vertex 0 37.45 4
      vertex 0 37.45 0
    endloop
  endfacet
  facet normal -0.049071 0.998795 0
    outer loop
      vertex -3.67073 37.2697 0
      vertex -3.67073 37.2697 4
      vertex 0 37.45 4
    endloop
  endfacet
  facet normal -0.146727 0.989177 0
    outer loop
      vertex -7.30612 36.7304 0
      vertex -3.67073 37.2697 4
      vertex -3.67073 37.2697 0
    endloop
  endfacet
  facet normal -0.146727 0.989177 0
    outer loop
      vertex -7.30612 36.7304 0
      vertex -7.30612 36.7304 4
      vertex -3.67073 37.2697 4
    endloop
  endfacet
  facet normal -0.242983 0.970031 0
    outer loop
      vertex -10.8712 35.8374 0
      vertex -7.30612 36.7304 4
      vertex -7.30612 36.7304 0
    endloop
  endfacet
  facet normal -0.242983 0.970031 0
    outer loop
      vertex -10.8712 35.8374 0
      vertex -10.8712 35.8374 4
      vertex -7.30612 36.7304 4
    endloop
  endfacet
  facet normal -0.336891 0.941544 0
    outer loop
      vertex -14.3315 34.5993 0
      vertex -10.8712 35.8374 4
      vertex -10.8712 35.8374 0
    endloop
  endfacet
  facet normal -0.336891 0.941544 0
    outer loop
      vertex -14.3315 34.5993 0
      vertex -14.3315 34.5993 4
      vertex -10.8712 35.8374 4
    endloop
  endfacet
  facet normal -0.427555 0.903989 0
    outer loop
      vertex -17.6538 33.0279 0
      vertex -14.3315 34.5993 4
      vertex -14.3315 34.5993 0
    endloop
  endfacet
  facet normal -0.427555 0.903989 0
    outer loop
      vertex -17.6538 33.0279 0
      vertex -17.6538 33.0279 4
      vertex -14.3315 34.5993 4
    endloop
  endfacet
  facet normal -0.514101 0.85773 0
    outer loop
      vertex -20.8061 31.1385 0
      vertex -17.6538 33.0279 4
      vertex -17.6538 33.0279 0
    endloop
  endfacet
  facet normal -0.514101 0.85773 0
    outer loop
      vertex -20.8061 31.1385 0
      vertex -20.8061 31.1385 4
      vertex -17.6538 33.0279 4
    endloop
  endfacet
  facet normal -0.595699 0.803208 0
    outer loop
      vertex -23.758 28.9492 0
      vertex -20.8061 31.1385 4
      vertex -20.8061 31.1385 0
    endloop
  endfacet
  facet normal -0.595699 0.803208 0
    outer loop
      vertex -23.758 28.9492 0
      vertex -23.758 28.9492 4
      vertex -20.8061 31.1385 4
    endloop
  endfacet
  facet normal -0.67156 0.74095 0
    outer loop
      vertex -26.4811 26.4811 0
      vertex -23.758 28.9492 4
      vertex -23.758 28.9492 0
    endloop
  endfacet
  facet normal -0.67156 0.74095 0
    outer loop
      vertex -26.4811 26.4811 0
      vertex -26.4811 26.4811 4
      vertex -23.758 28.9492 4
    endloop
  endfacet
  facet normal -0.74095 0.67156 0
    outer loop
      vertex -28.9492 23.758 0
      vertex -26.4811 26.4811 4
      vertex -26.4811 26.4811 0
    endloop
  endfacet
  facet normal -0.74095 0.67156 0
    outer loop
      vertex -28.9492 23.758 0
      vertex -28.9492 23.758 4
      vertex -26.4811 26.4811 4
    endloop
  endfacet
  facet normal -0.803208 0.595699 0
    outer loop
      vertex -31.1385 20.8061 0
      vertex -28.9492 23.758 4
      vertex -28.9492 23.758 0
    endloop
  endfacet
  facet normal -0.803208 0.595699 0
    outer loop
      vertex -31.1385 20.8061 0
      vertex -31.1385 20.8061 4
      vertex -28.9492 23.758 4
    endloop
  endfacet
  facet normal -0.85773 0.514101 0
    outer loop
      vertex -33.0279 17.6538 0
      vertex -31.1385 20.8061 4
      vertex -31.1385 20.8061 0
    endloop
  endfacet
  facet normal -0.85773 0.514101 0
    outer loop
      vertex -33.0279 17.6538 0
      vertex -33.0279 17.6538 4
      vertex -31.1385 20.8061 4
    endloop
  endfacet
  facet normal -0.903989 0.427555 0
    outer loop
      vertex -34.5993 14.3315 0
      vertex -33.0279 17.6538 4
      vertex -33.0279 17.6538 0
    endloop
  endfacet
  facet normal -0.903989 0.427555 0
    outer loop
      vertex -34.5993 14.3315 0
      vertex -34.5993 14.3315 4
      vertex -33.0279 17.6538 4
    endloop
  endfacet
  facet normal -0.941544 0.336891 0
    outer loop
      vertex -35.8374 10.8712 0
      vertex -34.5993 14.3315 4
      vertex -34.5993 14.3315 0
    endloop
  endfacet
  facet normal -0.941544 0.336891 0
    outer loop
      vertex -35.8374 10.8712 0
      vertex -35.8374 10.8712 4
      vertex -34.5993 14.3315 4
    endloop
  endfacet
  facet normal -0.970031 0.242983 0
    outer loop
      vertex -36.7304 7.30612 0
      vertex -35.8374 10.8712 4
      vertex -35.8374 10.8712 0
    endloop
  endfacet
  facet normal -0.970031 0.242983 0
    outer loop
      vertex -36.7304 7.30612 0
      vertex -36.7304 7.30612 4
      vertex -35.8374 10.8712 4
    endloop
  endfacet
  facet normal -0.989177 0.146727 0
    outer loop
      vertex -37.2697 3.67073 0
      vertex -36.7304 7.30612 4
      vertex -36.7304 7.30612 0
    endloop
  endfacet
  facet normal -0.989177 0.146727 0
    outer loop
      vertex -37.2697 3.67073 0
      vertex -37.2697 3.67073 4
      vertex -36.7304 7.30612 4
    endloop
  endfacet
  facet normal -0.998795 0.049071 0
    outer loop
      vertex -37.45 0 0
      vertex -37.2697 3.67073 4
      vertex -37.2697 3.67073 0
    endloop
  endfacet
  facet normal -0.998795 0.049071 0
    outer loop
      vertex -37.45 0 0
      vertex -37.45 0 4
      vertex -37.2697 3.67073 4
    endloop
  endfacet
  facet normal -0.998795 -0.049071 0
    outer loop
      vertex -37.2697 -3.67073 0
      vertex -37.45 0 4
      vertex -37.45 0 0
    endloop
  endfacet
  facet normal -0.998795 -0.049071 0
    outer loop
      vertex -37.2697 -3.67073 0
      vertex -37.2697 -3.67073 4
      vertex -37.45 0 4
    endloop
  endfacet
  facet normal -0.989177 -0.146727 0
    outer loop
      vertex -36.7304 -7.30612 0
      vertex -37.2697 -3.67073 4
      vertex -37.2697 -3.67073 0
    endloop
  endfacet
  facet normal -0.989177 -0.146727 0
    outer loop
      vertex -36.7304 -7.30612 0
      vertex -36.7304 -7.30612 4
      vertex -37.2697 -3.67073 4
    endloop
  endfacet
  facet normal -0.970031 -0.242983 0
    outer loop
      vertex -35.8374 -10.8712 0
      vertex -36.7304 -7.30612 4
      vertex -36.7304 -7.30612 0
    endloop
  endfacet
  facet normal -0.970031 -0.242983 0
    outer loop
      vertex -35.8374 -10.8712 0
      vertex -35.8374 -10.8712 4
      vertex -36.7304 -7.30612 4
    endloop
  endfacet
  facet normal -0.941544 -0.336891 0
    outer loop
      vertex -34.5993 -14.3315 0
      vertex -35.8374 -10.8712 4
      vertex -35.8374 -10.8712 0
    endloop
  endfacet
  facet normal -0.941544 -0.336891 0
    outer loop
      vertex -34.5993 -14.3315 0
      vertex -34.5993 -14.3315 4
      vertex -35.8374 -10.8712 4
    endloop
  endfacet
  facet normal -0.903989 -0.427555 0
    outer loop
      vertex -33.0279 -17.6538 0
      vertex -34.5993 -14.3315 4
      vertex -34.5993 -14.3315 0
    endloop
  endfacet
  facet normal -0.903989 -0.427555 0
    outer loop
      vertex -33.0279 -17.6538 0
      vertex -33.0279 -17.6538 4
      vertex -34.5993 -14.3315 4
    endloop
  endfacet
  facet normal -0.85773 -0.514101 0
    outer loop
      vertex -31.1385 -20.8061 0
      vertex -33.0279 -17.6538 4
      vertex -33.0279 -17.6538 0
    endloop
  endfacet
  facet normal -0.85773 -0.514101 0
    outer loop
      vertex -31.1385 -20.8061 0
      vertex -31.1385 -20.8061 4
      vertex -33.0279 -17.6538 4
    endloop
  endfacet
  facet normal -0.803208 -0.595699 0
    outer loop
      vertex -28.9492 -23.758 0
      vertex -31.1385 -20.8061 4
      vertex -31.1385 -20.8061 0
    endloop
  endfacet
  facet normal -0.803208 -0.595699 0
    outer loop
      vertex -28.9492 -23.758 0
      vertex -28.9492 -23.758 4
      vertex -31.1385 -20.8061 4
    endloop
  endfacet
  facet normal -0.74095 -0.67156 0
    outer loop
      vertex -26.4811 -26.4811 0
      vertex -28.9492 -23.758 4
      vertex -28.9492 -23.758 0
    endloop
  endfacet
  facet normal -0.74095 -0.67156 0
    outer loop
      vertex -26.4811 -26.4811 0
      vertex -26.4811 -26.4811 4
      vertex -28.9492 -23.758 4
    endloop
  endfacet
  facet normal -0.67156 -0.74095 0
    outer loop
      vertex -23.758 -28.9492 0
      vertex -26.4811 -26.4811 4
      vertex -26.4811 -26.4811 0
    endloop
  endfacet
  facet normal -0.67156 -0.74095 0
    outer loop
      vertex -23.758 -28.9492 0
      vertex -23.758 -28.9492 4
      vertex -26.4811 -26.4811 4
    endloop
  endfacet
  facet normal -0.595699 -0.803208 0
    outer loop
      vertex -20.8061 -31.1385 0
      vertex -23.758 -28.9492 4
      vertex -23.758 -28.9492 0
    endloop
  endfacet
  facet normal -0.595699 -0.803208 0
    outer loop
      vertex -20.8061 -31.1385 0
      vertex -20.8061 -31.1385 4
      vertex -23.758 -28.9492 4
    endloop
  endfacet
  facet normal -0.514101 -0.85773 0
    outer loop
      vertex -17.6538 -33.0279 0
      vertex -20.8061 -31.1385 4
      vertex -20.8061 -31.1385 0
    endloop
  endfacet
  facet normal -0.514101 -0.85773 0
    outer loop
      vertex -17.6538 -33.0279 0
      vertex -17.6538 -33.0279 4
      vertex -20.8061 -31.1385 4
    endloop
  endfacet
  facet normal -0.427555 -0.903989 0
    outer loop
      vertex -14.3315 -34.5993 0
      vertex -17.6538 -33.0279 4
      vertex -17.6538 -33.0279 0
    endloop
  endfacet
  facet normal -0.427555 -0.903989 0
    outer loop
      vertex -14.3315 -34.5993 0
      vertex -14.3315 -34.5993 4
      vertex -17.6538 -33.0279 4
    endloop
  endfacet
  facet normal -0.336891 -0.941544 0
    outer loop
      vertex -10.8712 -35.8374 0
      vertex -14.3315 -34.5993 4
      vertex -14.3315 -34.5993 0
    endloop
  endfacet
  facet normal -0.336891 -0.941544 0
    outer loop
      vertex -10.8712 -35.8374 0
      vertex -10.8712 -35.8374 4
      vertex -14.3315 -34.5993 4
    endloop
  endfacet
  facet normal -0.242983 -0.970031 0
    outer loop
      vertex -7.30612 -36.7304 0
      vertex -10.8712 -35.8374 4
      vertex -10.8712 -35.8374 0
    endloop
  endfacet
  facet normal -0.242983 -0.970031 0
    outer loop
      vertex -7.30612 -36.7304 0
      vertex -7.30612 -36.7304 4
      vertex -10.8712 -35.8374 4
    endloop
  endfacet
  facet normal -0.146727 -0.989177 0
    outer loop
      vertex -3.67073 -37.2697 0
      vertex -7.30612 -36.7304 4
      vertex -7.30612 -36.7304 0
    endloop
  endfacet
  facet normal -0.146727 -0.989177 0
    outer loop
      vertex -3.67073 -37.2697 0
      vertex -3.67073 -37.2697 4
      vertex -7.30612 -36.7304 4
    endloop
  endfacet
  facet normal -0.049071 -0.998795 0
    outer loop
      vertex 0 -37.45 0
      vertex -3.67073 -37.2697 4
      vertex -3.67073 -37.2697 0
    endloop
  endfacet
  facet normal -0.049071 -0.998795 0
    outer loop
      vertex 0 -37.45 0
      vertex 0 -37.45 4
      vertex -3.67073 -37.2697 4
    endloop
  endfacet
  facet normal 0.049071 -0.998795 0
    outer loop
      vertex 3.67073 -37.2697 0
      vertex 0 -37.45 4
      vertex 0 -37.45 0
    endloop
  endfacet
  facet normal 0.049071 -0.998795 0
    outer loop
      vertex 3.67073 -37.2697 0
      vertex 3.67073 -37.2697 4
      vertex 0 -37.45 4
    endloop
  endfacet
endsolid OpenSCAD_Model
